<mxfile host="app.diagrams.net" agent="Mozilla/5.0 (Windows NT 10.0; Win64; x64) AppleWebKit/537.36 (KHTML, like Gecko) Chrome/130.0.0.0 Safari/537.36" version="24.8.4">
  <diagram name="หน้า-1" id="hdI063Oatp5W-m61eJc4">
    <mxGraphModel dx="1434" dy="841" grid="1" gridSize="10" guides="1" tooltips="1" connect="1" arrows="1" fold="1" page="1" pageScale="1" pageWidth="827" pageHeight="1169" math="0" shadow="0">
      <root>
        <mxCell id="0" />
        <mxCell id="1" parent="0" />
        <mxCell id="441d8wFFJxsVQKN7MEsx-1" value="&lt;font size=&quot;1&quot; style=&quot;&quot;&gt;&lt;b style=&quot;font-size: 20px;&quot;&gt;เริ่มต้น&lt;/b&gt;&lt;/font&gt;" style="ellipse;whiteSpace=wrap;html=1;" vertex="1" parent="1">
          <mxGeometry x="340" y="10" width="120" height="80" as="geometry" />
        </mxCell>
        <mxCell id="441d8wFFJxsVQKN7MEsx-3" value="&lt;font style=&quot;font-size: 16px;&quot;&gt;รู้สึกหิว&lt;/font&gt;" style="rounded=0;whiteSpace=wrap;html=1;" vertex="1" parent="1">
          <mxGeometry x="340" y="160" width="120" height="60" as="geometry" />
        </mxCell>
        <mxCell id="441d8wFFJxsVQKN7MEsx-5" value="&lt;font style=&quot;font-size: 15px;&quot;&gt;ต้องการกินข้าวมันไก่หรือไม่?&lt;/font&gt;" style="rhombus;whiteSpace=wrap;html=1;" vertex="1" parent="1">
          <mxGeometry x="325" y="270" width="150" height="100" as="geometry" />
        </mxCell>
        <mxCell id="441d8wFFJxsVQKN7MEsx-7" value="" style="endArrow=classic;html=1;rounded=0;entryX=0.5;entryY=0;entryDx=0;entryDy=0;exitX=0.5;exitY=1;exitDx=0;exitDy=0;" edge="1" parent="1" source="441d8wFFJxsVQKN7MEsx-3" target="441d8wFFJxsVQKN7MEsx-5">
          <mxGeometry width="50" height="50" relative="1" as="geometry">
            <mxPoint x="389" y="270" as="sourcePoint" />
            <mxPoint x="439" y="220" as="targetPoint" />
          </mxGeometry>
        </mxCell>
        <mxCell id="441d8wFFJxsVQKN7MEsx-9" value="" style="endArrow=classic;html=1;rounded=0;entryX=0.5;entryY=0;entryDx=0;entryDy=0;exitX=0.5;exitY=1;exitDx=0;exitDy=0;" edge="1" parent="1" source="441d8wFFJxsVQKN7MEsx-1" target="441d8wFFJxsVQKN7MEsx-3">
          <mxGeometry width="50" height="50" relative="1" as="geometry">
            <mxPoint x="375" y="150" as="sourcePoint" />
            <mxPoint x="425" y="100" as="targetPoint" />
          </mxGeometry>
        </mxCell>
        <mxCell id="441d8wFFJxsVQKN7MEsx-10" value="" style="endArrow=none;html=1;rounded=0;exitX=1;exitY=0.5;exitDx=0;exitDy=0;" edge="1" parent="1" source="441d8wFFJxsVQKN7MEsx-5">
          <mxGeometry width="50" height="50" relative="1" as="geometry">
            <mxPoint x="520" y="350" as="sourcePoint" />
            <mxPoint x="640" y="320" as="targetPoint" />
          </mxGeometry>
        </mxCell>
        <mxCell id="441d8wFFJxsVQKN7MEsx-11" value="" style="endArrow=none;html=1;rounded=0;exitX=1;exitY=0.5;exitDx=0;exitDy=0;" edge="1" parent="1">
          <mxGeometry width="50" height="50" relative="1" as="geometry">
            <mxPoint x="200" y="319.5" as="sourcePoint" />
            <mxPoint x="325" y="319.5" as="targetPoint" />
          </mxGeometry>
        </mxCell>
        <mxCell id="441d8wFFJxsVQKN7MEsx-12" value="" style="endArrow=classic;html=1;rounded=0;" edge="1" parent="1">
          <mxGeometry width="50" height="50" relative="1" as="geometry">
            <mxPoint x="200" y="320" as="sourcePoint" />
            <mxPoint x="200" y="380" as="targetPoint" />
          </mxGeometry>
        </mxCell>
        <mxCell id="441d8wFFJxsVQKN7MEsx-13" value="&#xa;เลือกร้านข้าวมันไก่&#xa;&#xa;" style="rounded=0;whiteSpace=wrap;html=1;" vertex="1" parent="1">
          <mxGeometry x="140" y="380" width="120" height="40" as="geometry" />
        </mxCell>
        <mxCell id="441d8wFFJxsVQKN7MEsx-14" value="" style="endArrow=classic;html=1;rounded=0;" edge="1" parent="1">
          <mxGeometry width="50" height="50" relative="1" as="geometry">
            <mxPoint x="199.5" y="420" as="sourcePoint" />
            <mxPoint x="199.5" y="480" as="targetPoint" />
          </mxGeometry>
        </mxCell>
        <mxCell id="441d8wFFJxsVQKN7MEsx-15" value="&#xa;เดินทางไปที่ร้าน&#xa;&#xa;" style="rounded=0;whiteSpace=wrap;html=1;" vertex="1" parent="1">
          <mxGeometry x="140" y="480" width="120" height="40" as="geometry" />
        </mxCell>
        <mxCell id="441d8wFFJxsVQKN7MEsx-16" value="" style="endArrow=classic;html=1;rounded=0;" edge="1" parent="1">
          <mxGeometry width="50" height="50" relative="1" as="geometry">
            <mxPoint x="199.5" y="520" as="sourcePoint" />
            <mxPoint x="199.5" y="580" as="targetPoint" />
          </mxGeometry>
        </mxCell>
        <mxCell id="441d8wFFJxsVQKN7MEsx-17" value="เลือกเมนูข้าวมันไก่" style="rounded=0;whiteSpace=wrap;html=1;" vertex="1" parent="1">
          <mxGeometry x="140" y="580" width="120" height="40" as="geometry" />
        </mxCell>
        <mxCell id="441d8wFFJxsVQKN7MEsx-18" value="" style="endArrow=classic;html=1;rounded=0;" edge="1" parent="1">
          <mxGeometry width="50" height="50" relative="1" as="geometry">
            <mxPoint x="199.5" y="620" as="sourcePoint" />
            <mxPoint x="199.5" y="680" as="targetPoint" />
          </mxGeometry>
        </mxCell>
        <mxCell id="441d8wFFJxsVQKN7MEsx-19" value="รออาหารเสิร์ฟ" style="rounded=0;whiteSpace=wrap;html=1;" vertex="1" parent="1">
          <mxGeometry x="140" y="680" width="120" height="40" as="geometry" />
        </mxCell>
        <mxCell id="441d8wFFJxsVQKN7MEsx-20" value="" style="endArrow=classic;html=1;rounded=0;" edge="1" parent="1">
          <mxGeometry width="50" height="50" relative="1" as="geometry">
            <mxPoint x="199.5" y="720" as="sourcePoint" />
            <mxPoint x="199.5" y="780" as="targetPoint" />
          </mxGeometry>
        </mxCell>
        <mxCell id="441d8wFFJxsVQKN7MEsx-21" value="&lt;br&gt;&lt;strong&gt;อาหารมาแล้ว&lt;/strong&gt;&lt;div&gt;&lt;strong&gt;หรือยัง?&lt;/strong&gt; &lt;br&gt;&lt;br&gt;&lt;/div&gt;" style="rhombus;whiteSpace=wrap;html=1;" vertex="1" parent="1">
          <mxGeometry x="135" y="780" width="130" height="80" as="geometry" />
        </mxCell>
        <mxCell id="441d8wFFJxsVQKN7MEsx-22" value="" style="endArrow=none;html=1;rounded=0;" edge="1" parent="1">
          <mxGeometry width="50" height="50" relative="1" as="geometry">
            <mxPoint x="70" y="820" as="sourcePoint" />
            <mxPoint x="135" y="819.5" as="targetPoint" />
          </mxGeometry>
        </mxCell>
        <mxCell id="441d8wFFJxsVQKN7MEsx-24" value="" style="endArrow=none;html=1;rounded=0;" edge="1" parent="1">
          <mxGeometry width="50" height="50" relative="1" as="geometry">
            <mxPoint x="70" y="820" as="sourcePoint" />
            <mxPoint x="70" y="700" as="targetPoint" />
            <Array as="points">
              <mxPoint x="70" y="760" />
            </Array>
          </mxGeometry>
        </mxCell>
        <mxCell id="441d8wFFJxsVQKN7MEsx-25" value="" style="endArrow=classic;html=1;rounded=0;" edge="1" parent="1">
          <mxGeometry width="50" height="50" relative="1" as="geometry">
            <mxPoint x="70" y="699.5" as="sourcePoint" />
            <mxPoint x="120" y="700" as="targetPoint" />
          </mxGeometry>
        </mxCell>
        <mxCell id="441d8wFFJxsVQKN7MEsx-27" value="&lt;span style=&quot;font-size: 16px;&quot;&gt;ไม่&lt;/span&gt;" style="text;strokeColor=none;fillColor=none;html=1;fontSize=24;fontStyle=1;verticalAlign=middle;align=center;" vertex="1" parent="1">
          <mxGeometry x="90" y="790" width="60" height="10" as="geometry" />
        </mxCell>
        <mxCell id="441d8wFFJxsVQKN7MEsx-28" value="" style="endArrow=classic;html=1;rounded=0;" edge="1" parent="1">
          <mxGeometry width="50" height="50" relative="1" as="geometry">
            <mxPoint x="199.5" y="860" as="sourcePoint" />
            <mxPoint x="199.5" y="920" as="targetPoint" />
          </mxGeometry>
        </mxCell>
        <mxCell id="441d8wFFJxsVQKN7MEsx-29" value="ทานข้าวมันไก่" style="rounded=0;whiteSpace=wrap;html=1;" vertex="1" parent="1">
          <mxGeometry x="135" y="920" width="120" height="40" as="geometry" />
        </mxCell>
        <mxCell id="441d8wFFJxsVQKN7MEsx-31" value="&lt;font style=&quot;font-size: 16px;&quot;&gt;ใช่&lt;/font&gt;" style="text;strokeColor=none;fillColor=none;html=1;fontSize=24;fontStyle=1;verticalAlign=middle;align=center;" vertex="1" parent="1">
          <mxGeometry x="110" y="860" width="100" height="40" as="geometry" />
        </mxCell>
        <mxCell id="441d8wFFJxsVQKN7MEsx-32" value="&lt;span style=&quot;color: rgb(0, 0, 0); font-family: Helvetica; font-size: 16px; font-style: normal; font-variant-ligatures: normal; font-variant-caps: normal; font-weight: 700; letter-spacing: normal; orphans: 2; text-align: center; text-indent: 0px; text-transform: none; widows: 2; word-spacing: 0px; -webkit-text-stroke-width: 0px; white-space: nowrap; background-color: rgb(251, 251, 251); text-decoration-thickness: initial; text-decoration-style: initial; text-decoration-color: initial; display: inline !important; float: none;&quot;&gt;ใช่&lt;/span&gt;" style="text;whiteSpace=wrap;html=1;" vertex="1" parent="1">
          <mxGeometry x="265" y="280" width="50" height="40" as="geometry" />
        </mxCell>
        <mxCell id="441d8wFFJxsVQKN7MEsx-33" value="&lt;span style=&quot;color: rgb(0, 0, 0); font-family: Helvetica; font-size: 16px; font-style: normal; font-variant-ligatures: normal; font-variant-caps: normal; font-weight: 700; letter-spacing: normal; orphans: 2; text-align: center; text-indent: 0px; text-transform: none; widows: 2; word-spacing: 0px; -webkit-text-stroke-width: 0px; white-space: nowrap; background-color: rgb(251, 251, 251); text-decoration-thickness: initial; text-decoration-style: initial; text-decoration-color: initial; display: inline !important; float: none;&quot;&gt;ไม่&lt;/span&gt;" style="text;whiteSpace=wrap;html=1;" vertex="1" parent="1">
          <mxGeometry x="510" y="280" width="50" height="40" as="geometry" />
        </mxCell>
        <mxCell id="441d8wFFJxsVQKN7MEsx-34" value="" style="endArrow=classic;html=1;rounded=0;" edge="1" parent="1">
          <mxGeometry width="50" height="50" relative="1" as="geometry">
            <mxPoint x="199.5" y="960" as="sourcePoint" />
            <mxPoint x="199.5" y="1020" as="targetPoint" />
          </mxGeometry>
        </mxCell>
        <mxCell id="441d8wFFJxsVQKN7MEsx-35" value="ชำระเงิน" style="rounded=0;whiteSpace=wrap;html=1;" vertex="1" parent="1">
          <mxGeometry x="140" y="1020" width="120" height="40" as="geometry" />
        </mxCell>
        <mxCell id="441d8wFFJxsVQKN7MEsx-36" value="&lt;b style=&quot;font-size: 20px;&quot;&gt;สิ้นสุด&lt;br&gt;&lt;/b&gt;" style="ellipse;whiteSpace=wrap;html=1;" vertex="1" parent="1">
          <mxGeometry x="380" y="1090" width="110" height="70" as="geometry" />
        </mxCell>
        <mxCell id="441d8wFFJxsVQKN7MEsx-37" value="" style="ellipse;whiteSpace=wrap;html=1;aspect=fixed;" vertex="1" parent="1">
          <mxGeometry x="420" y="1025" width="30" height="30" as="geometry" />
        </mxCell>
        <mxCell id="441d8wFFJxsVQKN7MEsx-38" value="" style="endArrow=classic;html=1;rounded=0;exitX=1;exitY=0.5;exitDx=0;exitDy=0;" edge="1" parent="1" source="441d8wFFJxsVQKN7MEsx-35">
          <mxGeometry width="50" height="50" relative="1" as="geometry">
            <mxPoint x="340" y="1020" as="sourcePoint" />
            <mxPoint x="420" y="1040" as="targetPoint" />
          </mxGeometry>
        </mxCell>
        <mxCell id="441d8wFFJxsVQKN7MEsx-39" value="" style="endArrow=none;html=1;rounded=0;" edge="1" parent="1">
          <mxGeometry width="50" height="50" relative="1" as="geometry">
            <mxPoint x="640" y="1040" as="sourcePoint" />
            <mxPoint x="640" y="320" as="targetPoint" />
          </mxGeometry>
        </mxCell>
        <mxCell id="441d8wFFJxsVQKN7MEsx-40" value="" style="endArrow=classic;html=1;rounded=0;entryX=1;entryY=0.5;entryDx=0;entryDy=0;" edge="1" parent="1" target="441d8wFFJxsVQKN7MEsx-37">
          <mxGeometry width="50" height="50" relative="1" as="geometry">
            <mxPoint x="640" y="1040" as="sourcePoint" />
            <mxPoint x="430" y="1050" as="targetPoint" />
          </mxGeometry>
        </mxCell>
        <mxCell id="441d8wFFJxsVQKN7MEsx-41" value="" style="endArrow=classic;html=1;rounded=0;entryX=0.5;entryY=0;entryDx=0;entryDy=0;" edge="1" parent="1" target="441d8wFFJxsVQKN7MEsx-36">
          <mxGeometry width="50" height="50" relative="1" as="geometry">
            <mxPoint x="434.5" y="1055" as="sourcePoint" />
            <mxPoint x="434.5" y="1115" as="targetPoint" />
          </mxGeometry>
        </mxCell>
        <mxCell id="441d8wFFJxsVQKN7MEsx-43" value="&lt;div style=&quot;font-size: 11px;&quot;&gt;&lt;span style=&quot;&quot;&gt;1. รูปวงรี (Oval): ใช้สำหรับจุดเริ่มต้นและจุดสิ้นสุด&lt;/span&gt;&lt;br&gt;&lt;span style=&quot;&quot;&gt;ของกระบวนการ&lt;/span&gt;&lt;br&gt;&lt;span style=&quot;&quot;&gt;2. รูปสี่เหลี่ยมผืนผ้า (Rectangle): ใช้สำหรับแสดงขั้นตอนหรือ&lt;/span&gt;&lt;br&gt;&lt;span style=&quot;&quot;&gt;กระบวนการที่ทำ (Process)&lt;/span&gt;&lt;br&gt;&lt;span style=&quot;&quot;&gt;3. รูปสี่เหลี่ยมข้าวหลามตัด (Diamond):&amp;nbsp;&lt;/span&gt;&lt;br&gt;&lt;span style=&quot;&quot;&gt;ใช้สำหรับแสดงจุดตัดสินใจ (Decision)&lt;/span&gt;&lt;br&gt;&lt;span style=&quot;&quot;&gt;&amp;nbsp;ที่มีคำตอบ &quot;ใช่&quot; หรือ &quot;ไม่&quot;&lt;/span&gt;&lt;br&gt;&lt;span style=&quot;&quot;&gt;4. ลูกศร (Arrow): ใช้แสดงทิศทางการไหลของกระบวนการ&lt;/span&gt;&lt;/div&gt;" style="text;strokeColor=#000000;fillColor=#dae8fc;html=1;fontSize=24;fontStyle=1;verticalAlign=middle;align=left;labelBorderColor=none;labelBackgroundColor=none;textShadow=0;dashed=1;strokeWidth=2;" vertex="1" parent="1">
          <mxGeometry x="500" y="40" width="300" height="130" as="geometry" />
        </mxCell>
      </root>
    </mxGraphModel>
  </diagram>
</mxfile>
